{"title":"Decoding The Past Doomsday 2012 The End Of Days 2007 - 720p","uid":6550796,"size":1477096767,"categoryP":"video","categoryS":"hd___tv_shows","magnet":"?xt=urn:btih:2e01ee656d0dc6678c960bc1203e1715ec87a9bd&amp;dn=Decoding+The+Past+Doomsday+2012+The+End+Of+Days+2007+-+720p&amp;tr=udp%3A%2F%2Ftracker.openbittorrent.com%3A80&amp;tr=udp%3A%2F%2Fopen.demonii.com%3A1337&amp;tr=udp%3A%2F%2Ftracker.coppersurfer.tk%3A6969&amp;tr=udp%3A%2F%2Fexodus.desync.com%3A6969","seeders":0,"leechers":1,"uploader":"Isiris","files":1,"time":1311066217,"description":"Decoding The Past Doomsday 2012 The End Of Days 2007 - 720p\nMedia info\n\n   Video #1\n      ID : 1\n      Format : AVC\n      Format/Info : Advanced Video Codec\n      Format profile : &lt;a class=&quot;__cf_email__&quot; href=&quot;/cdn-cgi/l/email-protection&quot; data-cfemail=&quot;afe7c6c8c7efe39b819e&quot;&gt;[email&amp;#160;protected]&lt;/a&gt;&lt;script cf-hash='f9e31' type=&quot;text/javascript&quot;&gt;\n/* &lt;![CDATA[ */!function(){try{var t=&quot;currentScript&quot;in document?document.currentScript:function(){for(var t=document.getElementsByTagName(&quot;script&quot;),e=t.length;e--;)if(t[e].getAttribute(&quot;cf-hash&quot;))return t[e]}();if(t&amp;&amp;t.previousSibling){var e,r,n,i,c=t.previousSibling,a=c.getAttribute(&quot;data-cfemail&quot;);if(a){for(e=&quot;&quot;,r=parseInt(a.substr(0,2),16),n=2;a.length-n;n+=2)i=parseInt(a.substr(n,2),16)^r,e+=String.fromCharCode(i);e=document.createTextNode(e),c.parentNode.replaceChild(e,c)}}}catch(u){}}();/* ]]&gt; */&lt;/script&gt;\n      Format settings, CABAC : Yes\n      Format settings, ReFrames : 8 frames\n      Codec ID : V_MPEG4/ISO/AVC\n      Duration : 44mn 53s\n      Bit rate : 4 000 Kbps\n      Width : 1 280 pixels\n      Height : 720 pixels\n      Display aspect ratio : 16:9\n      Frame rate : 29.970 fps\n      Color space : YUV\n      Chroma subsampling : 4:2:0\n      Bit depth : 8 bits\n      Scan type : Progressive\n      Bits/(Pixel*Frame) : 0.145\n      Stream size : 1.23 GiB (89%)\n      Writing library : x264 core 64 r973M f473669\n      aq=1:1.00\n      Language : English\n\n   Audio #2\n      ID : 2\n      Format : AC-3\n      Format/Info : Audio Coding 3\n      Mode extension : CM (complete main)\n      Codec ID : A_AC3\n      Duration : 44mn 53s\n      Bit rate mode : Constant\n      Bit rate : 384 Kbps\n      Channel(s) : 2 channels\n      Channel positions : Front: L R\n      Sampling rate : 48.0 KHz\n      Bit depth : 16 bits\n      Compression mode : Lossy\n      Stream size : 123 MiB (9%)","torrent":{"xt":"urn:btih:2e01ee656d0dc6678c960bc1203e1715ec87a9bd","amp;dn":"Decoding+The+Past+Doomsday+2012+The+End+Of+Days+2007+-+720p","amp;tr":["udp%3A%2F%2Ftracker.openbittorrent.com%3A80","udp%3A%2F%2Fopen.demonii.com%3A1337","udp%3A%2F%2Ftracker.coppersurfer.tk%3A6969","udp%3A%2F%2Fexodus.desync.com%3A6969"],"infoHash":"2e01ee656d0dc6678c960bc1203e1715ec87a9bd","infoHashBuffer":{"type":"Buffer","data":[46,1,238,101,109,13,198,103,140,150,11,193,32,62,23,21,236,135,169,189]},"announce":[],"urlList":[]}}